<svg width="96" height="96" viewBox="0 0 96 96" fill="none" xmlns="http://www.w3.org/2000/svg">
<path d="M57.0757 66.774L62.5897 80.1461L60.8517 80.8693L55.3376 67.4972L57.0757 66.774Z" fill="black"/>
<path d="M57.0746 66.7738L55.3368 67.4969L60.8508 80.869L62.5887 80.1459L57.0746 66.7738ZM63.6893 80.6018L60.3935 81.9731L54.2361 67.041L57.532 65.6697L63.6893 80.6018Z" fill="black"/>
<path d="M67.6152 55.08L80.9273 60.6188L80.2074 62.3647L66.8953 56.8258L67.6152 55.08Z" fill="black"/>
<path d="M67.6162 55.0794L66.8964 56.8251L80.2088 62.3641L80.9287 60.6184L67.6162 55.0794ZM82.0293 60.1625L80.6662 63.4683L65.7958 57.281L67.1589 53.9753L82.0293 60.1625Z" fill="black"/>
<path d="M43.6999 83.1566L44.8575 79.9379L45.395 78.4012L47.9998 71.0916L50.6046 78.4012L51.1421 79.9379L52.2997 83.1566H54.2843L49.0954 68.7659H46.9248L41.7153 83.1566H43.6999Z" fill="black"/>
<path d="M49.6896 67.922L55.4866 83.9999H51.7083L50.3496 80.2234L50.347 80.2165L49.8114 78.6844L48.0013 73.6049L46.1911 78.6844L45.6555 80.2165L45.6529 80.2234L44.2942 83.9999H40.5142L46.3344 67.922H49.6896ZM41.7167 83.1562H43.7011L44.859 79.9375L45.3963 78.4012L48.0013 71.0918L50.6062 78.4012L51.1435 79.9375L52.3014 83.1562H54.2858L49.0965 68.7657H46.9267L41.7167 83.1562Z" fill="black"/>
<path d="M69.8546 75.9389L68.4074 72.8406L67.7058 71.3723L64.4021 64.3535L71.3895 67.672L72.8513 68.3768L75.9356 69.8305L77.3389 68.4208L63.5397 61.9306L62.0048 63.4724L68.4513 77.3485L69.8546 75.9389Z" fill="black"/>
<path d="M63.3636 60.9135L78.7853 68.1661L76.1148 70.8486L72.4954 69.1424L72.4887 69.1393L71.0275 68.4343L66.1698 66.1277L68.4654 71.0067H68.4666L69.1685 72.4745L69.1715 72.4812L70.8695 76.1175L68.199 78.8L61.2436 63.8302L60.9947 63.2931L63.3636 60.9135ZM68.4533 77.3487L69.8564 75.9393L68.4091 72.8407L67.7079 71.3723L64.404 64.354L71.3915 67.6721L72.8533 68.3765L75.938 69.8303L77.341 68.4209L63.5417 61.9306L62.0066 63.4726L68.4533 77.3487Z" fill="black"/>
<path d="M83.1583 52.3187L79.954 51.1558L78.4242 50.6159L71.1474 47.9994L78.4242 45.3829L79.954 44.843L83.1583 43.6801V41.6866L68.832 46.8988V49.0792L83.1583 54.3123V52.3187Z" fill="black"/>
<path d="M67.9866 46.3076L84.0001 40.4814V44.2717L80.2399 45.6364L80.233 45.639L78.7035 46.1789L73.6386 47.9993L78.7078 49.8216L78.7069 49.8224L80.233 50.3606L80.2399 50.3623L84.0001 51.727V55.519L67.9866 49.6696V46.3076ZM83.1564 54.3123V52.3184L79.9523 51.1562L78.4228 50.6164L71.1461 47.9993L78.4228 45.3832L79.9523 44.8433L83.1564 43.6803V41.6864L68.8304 46.899V49.0791L83.1564 54.3123Z" fill="black"/>
<path d="M38.9265 66.774L33.4125 80.1461L35.1505 80.8693L40.6646 67.4972L38.9265 66.774Z" fill="black"/>
<path d="M38.9256 66.7738L40.6634 67.4969L35.1494 80.869L33.4115 80.1459L38.9256 66.7738ZM32.3109 80.6018L35.6067 81.9731L41.764 67.041L38.4682 65.6697L32.3109 80.6018Z" fill="black"/>
<path d="M28.385 55.08L15.0729 60.6188L15.7928 62.3647L29.1049 56.8258L28.385 55.08Z" fill="black"/>
<path d="M28.384 55.0794L29.1038 56.8251L15.7914 62.3641L15.0716 60.6184L28.384 55.0794ZM13.971 60.1625L15.3341 63.4683L30.2045 57.281L28.8413 53.9753L13.971 60.1625Z" fill="black"/>
<path d="M26.1436 75.9389L27.5908 72.8406L28.2925 71.3723L31.5961 64.3535L24.6088 67.672L23.147 68.3768L20.0626 69.8305L18.6593 68.4208L32.4586 61.9306L33.9934 63.4724L27.547 77.3485L26.1436 75.9389Z" fill="black"/>
<path d="M32.6367 60.9135L17.2151 68.1661L19.8856 70.8486L23.505 69.1424L23.5116 69.1393L24.9728 68.4343L29.8306 66.1277L27.5349 71.0067H27.5337L26.8319 72.4745L26.8289 72.4812L25.1309 76.1175L27.8014 78.8L34.7568 63.8302L35.0056 63.2931L32.6367 60.9135ZM27.547 77.3487L26.144 75.9393L27.5912 72.8407L28.2925 71.3723L31.5964 64.354L24.6089 67.6721L23.1471 68.3765L20.0624 69.8303L18.6593 68.4209L32.4587 61.9306L33.9938 63.4726L27.547 77.3487Z" fill="black"/>
<path d="M57.0757 29.226L62.5897 15.8539L60.8517 15.1307L55.3376 28.5028L57.0757 29.226Z" fill="black"/>
<path d="M57.0746 29.2262L55.3368 28.5031L60.8508 15.131L62.5887 15.8541L57.0746 29.2262ZM63.6893 15.3982L60.3935 14.0269L54.2361 28.959L57.532 30.3303L63.6893 15.3982Z" fill="black"/>
<path d="M67.6152 40.9211L80.9273 35.3823L80.2074 33.6364L66.8953 39.1753L67.6152 40.9211Z" fill="black"/>
<path d="M67.6162 40.9208L66.8964 39.1751L80.2088 33.6361L80.9287 35.3818L67.6162 40.9208ZM82.0293 35.8377L80.6662 32.532L65.7958 38.7192L67.1589 42.025L82.0293 35.8377Z" fill="black"/>
<path d="M43.6999 12.8434L44.8575 16.0621L45.395 17.5988L47.9998 24.9084L50.6046 17.5988L51.1421 16.0621L52.2997 12.8434H54.2843L49.0954 27.2341H46.9248L41.7153 12.8434H43.6999Z" fill="black"/>
<path d="M49.6896 28.078L55.4866 12.0001H51.7083L50.3496 15.7766L50.347 15.7835L49.8114 17.3156L48.0013 22.3951L46.1911 17.3156L45.6555 15.7835L45.6529 15.7766L44.2942 12.0001H40.5142L46.3344 28.078H49.6896ZM41.7167 12.8438H43.7011L44.859 16.0625L45.3963 17.5988L48.0013 24.9082L50.6062 17.5988L51.1435 16.0625L52.3014 12.8438H54.2858L49.0965 27.2343H46.9267L41.7167 12.8438Z" fill="black"/>
<path d="M69.8546 20.0602L68.4074 23.1585L67.7058 24.6269L64.4021 31.6457L71.3895 28.3272L72.8513 27.6224L75.9356 26.1687L77.3389 27.5783L63.5397 34.0685L62.0048 32.5267L68.4513 18.6506L69.8546 20.0602Z" fill="black"/>
<path d="M63.3636 35.086L78.7853 27.8334L76.1148 25.1509L72.4954 26.8572L72.4887 26.8602L71.0275 27.5652L66.1698 29.8718L68.4654 24.9928H68.4666L69.1685 23.525L69.1715 23.5183L70.8695 19.882L68.199 17.1995L61.2436 32.1693L60.9947 32.7064L63.3636 35.086ZM68.4533 18.6508L69.8564 20.0602L68.4091 23.1588L67.7079 24.6272L64.404 31.6455L71.3915 28.3274L72.8533 27.623L75.938 26.1692L77.341 27.5786L63.5417 34.0689L62.0066 32.5269L68.4533 18.6508Z" fill="black"/>
<path d="M38.9265 29.226L33.4125 15.8539L35.1505 15.1307L40.6646 28.5028L38.9265 29.226Z" fill="black"/>
<path d="M38.9256 29.2262L40.6634 28.5031L35.1494 15.131L33.4115 15.8541L38.9256 29.2262ZM32.3109 15.3982L35.6067 14.0269L41.764 28.959L38.4682 30.3303L32.3109 15.3982Z" fill="black"/>
<path d="M28.385 40.9211L15.0729 35.3823L15.7928 33.6364L29.1049 39.1753L28.385 40.9211Z" fill="black"/>
<path d="M28.384 40.9208L29.1038 39.1751L15.7914 33.6361L15.0716 35.3818L28.384 40.9208ZM13.971 35.8377L15.3341 32.532L30.2045 38.7192L28.8413 42.025L13.971 35.8377Z" fill="black"/>
<path d="M26.1436 20.0602L27.5908 23.1585L28.2925 24.6269L31.5961 31.6457L24.6088 28.3272L23.147 27.6224L20.0626 26.1687L18.6593 27.5783L32.4586 34.0685L33.9934 32.5267L27.547 18.6506L26.1436 20.0602Z" fill="black"/>
<path d="M32.6367 35.086L17.2151 27.8334L19.8856 25.1509L23.505 26.8572L23.5116 26.8602L24.9728 27.5652L29.8306 29.8718L27.5349 24.9928H27.5337L26.8319 23.525L26.8289 23.5183L25.1309 19.882L27.8014 17.1995L34.7568 32.1693L35.0056 32.7064L32.6367 35.086ZM27.547 18.6508L26.144 20.0602L27.5912 23.1588L28.2925 24.6272L31.5964 31.6455L24.6089 28.3274L23.1471 27.623L20.0624 26.1692L18.6593 27.5786L32.4587 34.0689L33.9938 32.5269L27.547 18.6508Z" fill="black"/>
<path d="M12.844 52.3187L16.0483 51.1558L17.5781 50.6159L24.8549 47.9994L17.5781 45.3829L16.0483 44.843L12.844 43.6801V41.6866L27.1702 46.8988V49.0792L12.844 54.3123V52.3187Z" fill="black"/>
<path d="M28.0137 46.3076L12.0002 40.4814V44.2717L15.7604 45.6364L15.7673 45.639L17.2968 46.1789L22.3617 47.9993L17.2925 49.8216L17.2934 49.8224L15.7673 50.3606L15.7604 50.3623L12.0002 51.727V55.519L28.0137 49.6696V46.3076ZM12.8439 54.3123V52.3184L16.048 51.1562L17.5775 50.6164L24.8542 47.9993L17.5775 45.3832L16.048 44.8433L12.8439 43.6803V41.6864L27.17 46.899V49.0791L12.8439 54.3123Z" fill="black"/>
</svg>
